<svg width="76" height="70" viewBox="0 0 76 70" fill="none" xmlns="http://www.w3.org/2000/svg">
<path d="M19.603 0.192642C11.3956 0.192642 4.748 6.73719 4.748 14.8188V54.8291C4.748 62.9107 11.3956 69.4552 19.603 69.4552H60.235C68.4425 69.4552 75.09 62.9107 75.09 54.8291V14.8188C75.09 6.73719 68.4425 0.192642 60.235 0.192642H19.603Z" fill="url(#paint0_linear_3_2)"/>
<path d="M21.6897 52.6293C21.6897 52.6293 36.123 53.2145 33.5162 34.1267C33.5162 34.1267 30.6332 20.1639 17.2575 14.7401C17.2575 14.7401 28.2991 22.6502 30.4316 36.0188C30.4292 36.0223 32.638 49.2822 21.6897 52.6293Z" fill="white"/>
<path d="M33.24 41.6212C43.5339 35.899 45.808 30.2891 40.7857 26.5898C40.4443 26.3372 40.0597 26.1089 39.6585 25.9021C42.8997 28.967 39.3763 34.7119 32.1065 39.2393C32.3228 39.6725 32.9777 40.9938 33.2349 41.6136C33.1916 41.659 33.2349 41.6136 33.2512 41.6118L33.24 41.6212Z" fill="white"/>
<path d="M39.8075 52.7575C39.8075 52.7575 54.2409 53.3427 51.634 34.2549C51.634 34.2549 48.7511 20.2921 35.3754 14.8684C35.3754 14.8684 46.417 22.7785 48.5495 36.147C48.5471 36.1505 50.7559 49.4104 39.8075 52.7575Z" fill="white"/>
<path d="M51.3579 41.7494C61.6518 36.0273 63.9259 30.4173 58.9036 26.7181C58.5622 26.4654 58.1775 26.2371 57.7764 26.0303C61.0176 29.0952 57.4942 34.8402 50.2244 39.3675C50.4407 39.8007 51.0956 41.1221 51.3528 41.7419C51.3095 41.7872 51.3528 41.7419 51.3691 41.7401L51.3579 41.7494Z" fill="white"/>
<defs>
<linearGradient id="paint0_linear_3_2" x1="4.748" y1="34.8239" x2="75.09" y2="34.8239" gradientUnits="userSpaceOnUse">
<stop stop-color="#82378C"/>
<stop offset="1" stop-color="#1E71B8"/>
</linearGradient>
</defs>
</svg>
